<mxfile host="65bd71144e" modified="2023-12-03T14:48:27.739Z" agent="Mozilla/5.0 (Windows NT 10.0; Win64; x64) AppleWebKit/537.36 (KHTML, like Gecko) VSCodium/1.84.2 Chrome/114.0.5735.289 Electron/25.9.2 Safari/537.36" version="22.1.5" etag="xSZne38xjdrW7OLl0cF1" type="embed">
    <diagram id="B9TVrYJtZ6u2wQJnVaFX" name="Page-1">
        <mxGraphModel dx="860" dy="1187" grid="1" gridSize="10" guides="1" tooltips="1" connect="1" arrows="1" fold="1" page="1" pageScale="1" pageWidth="850" pageHeight="1100" math="0" shadow="0">
            <root>
                <mxCell id="0"/>
                <mxCell id="1" parent="0"/>
                <mxCell id="2" value="The Entity (in spirit)" style="swimlane;startSize=23;labelBackgroundColor=none;fillColor=#050505;fontColor=#FFFFFF;" vertex="1" parent="1">
                    <mxGeometry x="210" y="400" width="270" height="220" as="geometry"/>
                </mxCell>
                <mxCell id="9" value="Transform" style="shape=ext;double=1;rounded=0;whiteSpace=wrap;html=1;" vertex="1" parent="2">
                    <mxGeometry x="139" y="39" width="120" height="80" as="geometry"/>
                </mxCell>
                <mxCell id="4" value="Entity Data" style="shape=ext;double=1;rounded=0;whiteSpace=wrap;html=1;" vertex="1" parent="1">
                    <mxGeometry x="222" y="439" width="120" height="80" as="geometry"/>
                </mxCell>
            </root>
        </mxGraphModel>
    </diagram>
</mxfile>